<mxfile host="app.diagrams.net" modified="2024-03-22T09:12:35.830Z" agent="Mozilla/5.0 (Windows NT 10.0; Win64; x64) AppleWebKit/537.36 (KHTML, like Gecko) Chrome/122.0.0.0 Safari/537.36" etag="0W1LB1Y9VzsVuuGqg2VI" version="24.0.7" type="github">
  <diagram name="Page-1" id="XzqM8-vw0jxmQeB4U7DF">
    <mxGraphModel dx="1434" dy="772" grid="1" gridSize="10" guides="1" tooltips="1" connect="1" arrows="1" fold="1" page="1" pageScale="1" pageWidth="850" pageHeight="1100" math="0" shadow="0">
      <root>
        <mxCell id="0" />
        <mxCell id="1" parent="0" />
        <mxCell id="ineW9E7MuL8HfUcgkZqa-1" value="&lt;div&gt;&lt;font color=&quot;#4d4d4d&quot;&gt;&lt;br&gt;&lt;/font&gt;&lt;/div&gt;&lt;div&gt;&lt;font color=&quot;#4d4d4d&quot;&gt;&lt;br&gt;&lt;/font&gt;&lt;/div&gt;&lt;font color=&quot;#4d4d4d&quot;&gt;&lt;div&gt;&lt;font color=&quot;#4d4d4d&quot;&gt;&lt;br&gt;&lt;/font&gt;&lt;/div&gt;Workday&lt;/font&gt;&lt;div&gt;&lt;font color=&quot;#4d4d4d&quot;&gt;HCM &amp;amp; FINANCE&lt;/font&gt;&lt;/div&gt;" style="shape=cylinder3;whiteSpace=wrap;html=1;boundedLbl=1;backgroundOutline=1;size=15;fillColor=#ffe6cc;strokeColor=#d79b00;" vertex="1" parent="1">
          <mxGeometry x="40" y="320" width="150" height="121" as="geometry" />
        </mxCell>
        <mxCell id="ineW9E7MuL8HfUcgkZqa-2" value="" style="shape=image;verticalLabelPosition=bottom;labelBackgroundColor=default;verticalAlign=top;aspect=fixed;imageAspect=0;image=https://upload.wikimedia.org/wikipedia/commons/thumb/3/3b/Workday_Logo.png/1280px-Workday_Logo.png;" vertex="1" parent="1">
          <mxGeometry x="75" y="359" width="90" height="34.95" as="geometry" />
        </mxCell>
        <mxCell id="ineW9E7MuL8HfUcgkZqa-3" value="OKTA&lt;div&gt;ACITVE DIRECTORY&lt;/div&gt;" style="shape=cylinder3;whiteSpace=wrap;html=1;boundedLbl=1;backgroundOutline=1;size=15;fillColor=#000066;fontColor=#ffffff;strokeColor=#FFFFFF;" vertex="1" parent="1">
          <mxGeometry x="710" y="530" width="100" height="90" as="geometry" />
        </mxCell>
        <mxCell id="ineW9E7MuL8HfUcgkZqa-4" value="&lt;h1 style=&quot;box-sizing: inherit; margin: 0px 0px 23px; color: rgb(25, 25, 25); line-height: 1.2; font-family: &amp;quot;Aeonik Regular&amp;quot;, Helvetica, Arial, sans-serif; font-style: normal; font-variant-ligatures: normal; font-variant-caps: normal; letter-spacing: normal; orphans: 2; text-align: start; text-indent: 0px; text-transform: none; widows: 2; word-spacing: 0px; -webkit-text-stroke-width: 0px; white-space: normal; background-color: rgb(255, 255, 255); text-decoration-thickness: initial; text-decoration-style: initial; text-decoration-color: initial; font-size: 23px;&quot;&gt;&lt;font style=&quot;font-size: 23px;&quot;&gt;Incremental imports&lt;/font&gt;&lt;/h1&gt;" style="text;whiteSpace=wrap;html=1;" vertex="1" parent="1">
          <mxGeometry x="40" y="470" width="230" height="50" as="geometry" />
        </mxCell>
        <mxCell id="ineW9E7MuL8HfUcgkZqa-5" value="&lt;span style=&quot;color: rgb(25, 25, 25); font-family: &amp;quot;Aeonik Regular&amp;quot;, Helvetica, Arial, sans-serif; font-size: 17px; font-style: normal; font-variant-ligatures: normal; font-variant-caps: normal; font-weight: 400; letter-spacing: normal; orphans: 2; text-align: left; text-indent: 0px; text-transform: none; widows: 2; word-spacing: 0px; -webkit-text-stroke-width: 0px; white-space: normal; text-decoration-thickness: initial; text-decoration-style: initial; text-decoration-color: initial; float: none; display: inline !important;&quot;&gt;Today&lt;/span&gt;" style="text;whiteSpace=wrap;html=1;fillColor=#d5e8d4;strokeColor=#82b366;" vertex="1" parent="1">
          <mxGeometry x="260" y="560" width="70" height="30" as="geometry" />
        </mxCell>
        <mxCell id="ineW9E7MuL8HfUcgkZqa-6" value="&lt;span style=&quot;color: rgb(25, 25, 25); font-family: &amp;quot;Aeonik Regular&amp;quot;, Helvetica, Arial, sans-serif; font-size: 17px; font-style: normal; font-variant-ligatures: normal; font-variant-caps: normal; font-weight: 400; letter-spacing: normal; orphans: 2; text-align: left; text-indent: 0px; text-transform: none; widows: 2; word-spacing: 0px; -webkit-text-stroke-width: 0px; white-space: normal; text-decoration-thickness: initial; text-decoration-style: initial; text-decoration-color: initial; float: none; display: inline !important;&quot;&gt;Pre-Start interval set to 10 days&lt;/span&gt;" style="text;whiteSpace=wrap;html=1;fillColor=#eeeeee;strokeColor=#36393d;" vertex="1" parent="1">
          <mxGeometry x="50" y="520" width="540" height="30" as="geometry" />
        </mxCell>
        <mxCell id="ineW9E7MuL8HfUcgkZqa-7" value="&lt;span style=&quot;color: rgb(25, 25, 25); font-family: &amp;quot;Aeonik Regular&amp;quot;, Helvetica, Arial, sans-serif; font-size: 17px; font-style: normal; font-variant-ligatures: normal; font-variant-caps: normal; font-weight: 400; letter-spacing: normal; orphans: 2; text-indent: 0px; text-transform: none; widows: 2; word-spacing: 0px; -webkit-text-stroke-width: 0px; white-space: normal; text-decoration-thickness: initial; text-decoration-style: initial; text-decoration-color: initial; float: none; display: inline !important;&quot;&gt;Last import&amp;nbsp;&lt;/span&gt;&lt;div&gt;&lt;span style=&quot;color: rgb(25, 25, 25); font-family: &amp;quot;Aeonik Regular&amp;quot;, Helvetica, Arial, sans-serif; font-size: 17px; font-style: normal; font-variant-ligatures: normal; font-variant-caps: normal; font-weight: 400; letter-spacing: normal; orphans: 2; text-indent: 0px; text-transform: none; widows: 2; word-spacing: 0px; -webkit-text-stroke-width: 0px; white-space: normal; background-color: rgb(255, 255, 255); text-decoration-thickness: initial; text-decoration-style: initial; text-decoration-color: initial; float: none; display: inline !important;&quot;&gt;&lt;br&gt;&lt;/span&gt;&lt;/div&gt;&lt;div&gt;&lt;span style=&quot;color: rgb(25, 25, 25); font-family: &amp;quot;Aeonik Regular&amp;quot;, Helvetica, Arial, sans-serif; font-size: 17px; font-style: normal; font-variant-ligatures: normal; font-variant-caps: normal; font-weight: 400; letter-spacing: normal; orphans: 2; text-indent: 0px; text-transform: none; widows: 2; word-spacing: 0px; -webkit-text-stroke-width: 0px; white-space: normal; background-color: rgb(255, 255, 255); text-decoration-thickness: initial; text-decoration-style: initial; text-decoration-color: initial; float: none; display: inline !important;&quot;&gt;January 7th&lt;/span&gt;&lt;/div&gt;" style="text;whiteSpace=wrap;html=1;fillColor=#ffe6cc;strokeColor=#d79b00;align=center;" vertex="1" parent="1">
          <mxGeometry x="50" y="560" width="110" height="30" as="geometry" />
        </mxCell>
        <mxCell id="ineW9E7MuL8HfUcgkZqa-8" value="&lt;div style=&quot;text-align: center;&quot;&gt;&lt;span style=&quot;background-color: initial; font-size: 17px;&quot;&gt;&lt;font face=&quot;Aeonik Regular, Helvetica, Arial, sans-serif&quot; color=&quot;#191919&quot;&gt;January 10th&lt;/font&gt;&lt;/span&gt;&lt;/div&gt;" style="text;whiteSpace=wrap;html=1;" vertex="1" parent="1">
          <mxGeometry x="257" y="590" width="120" height="30" as="geometry" />
        </mxCell>
        <mxCell id="ineW9E7MuL8HfUcgkZqa-9" value="&lt;font face=&quot;Aeonik Regular, Helvetica, Arial, sans-serif&quot; color=&quot;#191919&quot;&gt;&lt;span style=&quot;font-size: 17px;&quot;&gt;Future Date&lt;/span&gt;&lt;/font&gt;" style="text;whiteSpace=wrap;html=1;fillColor=#d5e8d4;strokeColor=#82b366;" vertex="1" parent="1">
          <mxGeometry x="490" y="560" width="100" height="30" as="geometry" />
        </mxCell>
        <mxCell id="ineW9E7MuL8HfUcgkZqa-10" value="&lt;div style=&quot;text-align: center;&quot;&gt;&lt;span style=&quot;background-color: initial; font-size: 17px;&quot;&gt;&lt;font face=&quot;Aeonik Regular, Helvetica, Arial, sans-serif&quot; color=&quot;#191919&quot;&gt;January 17th&lt;/font&gt;&lt;/span&gt;&lt;/div&gt;" style="text;whiteSpace=wrap;html=1;" vertex="1" parent="1">
          <mxGeometry x="487" y="590" width="120" height="20" as="geometry" />
        </mxCell>
        <mxCell id="ineW9E7MuL8HfUcgkZqa-12" value="" style="shape=curlyBracket;whiteSpace=wrap;html=1;rounded=1;flipH=1;labelPosition=right;verticalLabelPosition=middle;align=left;verticalAlign=middle;rotation=90;" vertex="1" parent="1">
          <mxGeometry x="329.31" y="469.77" width="14.31" height="345.23" as="geometry" />
        </mxCell>
        <mxCell id="ineW9E7MuL8HfUcgkZqa-14" style="edgeStyle=orthogonalEdgeStyle;rounded=1;orthogonalLoop=1;jettySize=auto;html=1;exitX=0.1;exitY=0.5;exitDx=0;exitDy=0;exitPerimeter=0;entryX=0.26;entryY=0.978;entryDx=0;entryDy=0;entryPerimeter=0;curved=0;" edge="1" parent="1" source="ineW9E7MuL8HfUcgkZqa-12" target="ineW9E7MuL8HfUcgkZqa-3">
          <mxGeometry relative="1" as="geometry">
            <Array as="points">
              <mxPoint x="337" y="670" />
              <mxPoint x="740" y="670" />
              <mxPoint x="740" y="618" />
            </Array>
          </mxGeometry>
        </mxCell>
      </root>
    </mxGraphModel>
  </diagram>
</mxfile>
